<svg width="16" height="16" viewBox="0 0 16 16" fill="none" xmlns="http://www.w3.org/2000/svg">
<path d="M8.19658 6.00969C7.78623 5.96916 7.37338 6.05646 7.01457 6.25963C6.65575 6.46281 6.3685 6.77192 6.19215 7.14465C6.0158 7.51739 5.95897 7.93552 6.02943 8.3418C6.0999 8.74808 6.29423 9.12265 6.5858 9.41422C6.87737 9.70579 7.25194 9.90011 7.65822 9.97058C8.0645 10.0411 8.48263 9.98422 8.85536 9.80787C9.2281 9.63152 9.53721 9.34427 9.74038 8.98545C9.94356 8.62663 10.0309 8.21379 9.99033 7.80344C9.94413 7.34343 9.7403 6.91354 9.41339 6.58663C9.08647 6.25972 8.65659 6.05589 8.19658 6.00969ZM13.0122 8C13.0109 8.21739 12.995 8.43445 12.9644 8.64969L14.3772 9.75781C14.4387 9.80881 14.4802 9.87996 14.4942 9.95863C14.5082 10.0373 14.4939 10.1184 14.4538 10.1875L13.1172 12.5C13.0766 12.5684 13.0132 12.6204 12.938 12.6466C12.8629 12.6728 12.781 12.6717 12.7066 12.6434L11.3035 12.0784C11.2261 12.0476 11.1423 12.0365 11.0595 12.046C10.9768 12.0556 10.8977 12.0855 10.8294 12.1331C10.6153 12.2806 10.3902 12.4116 10.1563 12.525C10.0827 12.5607 10.0191 12.6141 9.97102 12.6802C9.92295 12.7464 9.89191 12.8234 9.88064 12.9044L9.67033 14.4009C9.65652 14.48 9.61568 14.5518 9.55481 14.604C9.49393 14.6563 9.4168 14.6858 9.33658 14.6875H6.66345C6.58456 14.6861 6.50849 14.6579 6.44776 14.6076C6.38704 14.5572 6.34529 14.4876 6.32939 14.4103L6.11939 12.9159C6.1076 12.834 6.07575 12.7563 6.02669 12.6897C5.97762 12.6231 5.91285 12.5696 5.83814 12.5341C5.60446 12.4213 5.3802 12.2899 5.16752 12.1412C5.09942 12.0939 5.02061 12.0642 4.93818 12.0549C4.85575 12.0455 4.77229 12.0568 4.69533 12.0878L3.29252 12.6525C3.21818 12.6808 3.13623 12.682 3.06111 12.6558C2.986 12.6296 2.92253 12.5778 2.88189 12.5094L1.54533 10.1969C1.50515 10.1278 1.49079 10.0467 1.50481 9.96799C1.51883 9.8893 1.56032 9.81815 1.62189 9.76719L2.81595 8.82969C2.88137 8.77776 2.93279 8.71031 2.96553 8.63348C2.99827 8.55664 3.01131 8.47284 3.00345 8.38969C2.9922 8.25938 2.98533 8.12938 2.98533 7.99906C2.98533 7.86875 2.99189 7.74062 3.00345 7.61312C3.01045 7.53048 2.99677 7.44739 2.96366 7.37134C2.93055 7.2953 2.87904 7.22868 2.81377 7.1775L1.62033 6.24C1.55975 6.18878 1.51914 6.11787 1.5056 6.03971C1.49206 5.96155 1.50645 5.88111 1.54627 5.8125L2.88283 3.5C2.92342 3.43156 2.98687 3.37964 3.06199 3.3534C3.13711 3.32716 3.21908 3.32828 3.29345 3.35656L4.69658 3.92156C4.77396 3.95237 4.85777 3.9635 4.9405 3.95396C5.02324 3.94441 5.10231 3.91449 5.17064 3.86687C5.38478 3.71941 5.6098 3.58841 5.84377 3.475C5.91732 3.43925 5.98094 3.38594 6.02901 3.31977C6.07708 3.25361 6.10812 3.17663 6.11939 3.09562L6.3297 1.59906C6.34352 1.52003 6.38435 1.44824 6.44523 1.39597C6.5061 1.3437 6.58324 1.3142 6.66345 1.3125H9.33658C9.41547 1.31386 9.49155 1.34206 9.55227 1.39245C9.613 1.44283 9.65474 1.5124 9.67064 1.58969L9.88064 3.08406C9.89243 3.16596 9.92428 3.24367 9.97335 3.31029C10.0224 3.37691 10.0872 3.43038 10.1619 3.46594C10.3956 3.57874 10.6198 3.71009 10.8325 3.85875C10.9006 3.90613 10.9794 3.93582 11.0619 3.94515C11.1443 3.95448 11.2277 3.94315 11.3047 3.91219L12.7075 3.3475C12.7819 3.31919 12.8638 3.31802 12.9389 3.34421C13.014 3.37039 13.0775 3.42224 13.1181 3.49062L14.4547 5.80312C14.4949 5.87221 14.5092 5.95332 14.4952 6.03201C14.4812 6.1107 14.4397 6.18185 14.3781 6.23281L13.1841 7.17031C13.1184 7.22207 13.0667 7.28944 13.0336 7.36629C13.0006 7.44314 12.9873 7.52702 12.995 7.61031C13.0053 7.73969 13.0122 7.86969 13.0122 8Z" stroke="#FF0000" stroke-opacity="0.71" stroke-linecap="round" stroke-linejoin="round"/>
</svg>
