<?xml version="1.0" standalone="no"?>
<!DOCTYPE svg PUBLIC "-//W3C//DTD SVG 20010904//EN"
 "http://www.w3.org/TR/2001/REC-SVG-20010904/DTD/svg10.dtd">
<svg version="1.0" xmlns="http://www.w3.org/2000/svg"
 width="502.000000pt" height="502.000000pt" viewBox="0 0 502.000000 502.000000"
 preserveAspectRatio="xMidYMid meet">
<metadata>
Created by potrace 1.14, written by Peter Selinger 2001-2017
</metadata>
<g transform="translate(0.000000,502.000000) scale(0.100000,-0.100000)"
fill="#000000" stroke="none">
<path d="M2408 4565 c-2 -1 -32 -5 -68 -8 -292 -27 -599 -152 -835 -342 -72
-58 -208 -193 -255 -255 -19 -25 -37 -47 -40 -50 -14 -13 -50 -70 -50 -79 0
-5 -3 -11 -7 -13 -13 -5 -41 -55 -97 -173 -74 -153 -120 -303 -142 -465 -3
-25 -8 -53 -10 -64 -14 -73 -3 -301 18 -381 5 -22 12 -51 14 -65 3 -14 8 -34
11 -45 4 -11 8 -24 9 -30 29 -126 169 -446 301 -685 52 -95 157 -265 165 -268
4 -2 8 -8 8 -13 0 -28 356 -525 485 -676 5 -6 26 -31 45 -54 19 -23 44 -52 55
-64 11 -13 45 -51 75 -86 165 -187 343 -341 410 -354 20 -4 91 27 116 50 7 5
30 25 52 43 96 78 310 307 438 468 17 21 51 64 76 94 112 140 208 273 368 510
28 42 103 162 137 220 21 36 42 73 48 82 62 104 177 333 228 455 153 366 188
601 137 908 -73 432 -340 839 -707 1078 -83 54 -220 127 -238 127 -7 0 -15 4
-17 8 -6 16 -278 97 -363 108 -16 2 -48 6 -70 10 -39 6 -291 14 -297 9z m297
-409 c96 -21 200 -53 275 -85 240 -103 461 -314 583 -557 27 -53 81 -207 91
-259 4 -16 9 -41 12 -55 27 -132 18 -345 -21 -495 -121 -463 -503 -800 -985
-870 -58 -9 -242 -9 -300 0 -309 44 -543 176 -768 433 -90 102 -199 335 -228
485 -2 10 -5 26 -8 35 -15 50 -22 286 -11 336 3 12 7 39 10 61 7 66 15 96 46
189 26 79 92 222 109 236 3 3 17 23 30 45 87 143 277 308 455 394 181 88 325
119 535 116 80 -2 159 -6 175 -9z"/>
<path d="M2449 3886 c-1 -6 -1 -41 -1 -78 -1 -38 -4 -68 -7 -69 -3 0 -17 -3
-31 -5 -14 -3 -32 -6 -40 -7 -8 -1 -21 -6 -27 -10 -7 -5 -13 -6 -13 -3 0 12
-108 -38 -154 -71 -98 -70 -157 -165 -172 -277 -30 -230 59 -352 322 -441
l121 -40 -1 -173 c0 -167 -1 -172 -20 -172 -52 0 -233 73 -306 122 -19 13 -40
27 -47 31 -9 6 -31 -29 -72 -111 -70 -139 -74 -124 54 -190 97 -49 210 -88
285 -98 14 -2 43 -7 65 -12 l40 -8 1 -64 c1 -36 2 -70 3 -77 1 -12 130 -18
132 -5 1 4 3 34 4 67 2 33 4 65 4 71 1 6 16 11 35 12 193 7 370 114 426 257
20 50 24 78 24 170 0 96 -3 116 -24 160 -60 124 -180 199 -412 257 -37 9 -48
16 -49 32 -4 60 -4 313 -1 324 5 14 35 10 112 -15 56 -18 159 -70 183 -91 9
-8 19 -13 21 -11 12 12 96 161 96 170 0 6 7 17 15 25 8 9 15 19 15 23 0 12
-173 99 -241 122 -74 24 -78 25 -144 33 -27 4 -52 9 -54 12 -3 3 -5 37 -6 76
l0 71 -67 2 c-41 1 -68 -3 -69 -9z m-3 -551 c0 -85 -3 -155 -7 -155 -17 0 -76
31 -100 52 -36 32 -49 60 -49 105 0 66 35 113 105 140 53 20 52 23 51 -142z
m214 -518 c75 -34 111 -74 117 -129 8 -84 -58 -151 -151 -152 l-41 -1 0 145
c-1 144 1 173 14 166 3 -2 31 -15 61 -29z"/>
</g>
</svg>
